<?xml version='1.0' encoding='utf-8'?>
<svg xmlns="http://www.w3.org/2000/svg" viewBox="0 0 24 24" width="24" height="24" fill="none">
  <defs>
    <filter id="drop-shadow" x="-20%" y="-20%" width="140%" height="140%">
      <feDropShadow dx="2" dy="4" stdDeviation="4" flood-color="#000000" flood-opacity="0.5" />
    </filter>
  </defs>
  <g filter="url(#drop-shadow)">
    <line x1="4" y1="8" x2="20" y2="8" stroke="#4A90D9" stroke-width="0.5" opacity="0.4" />
    <line x1="4" y1="12" x2="20" y2="12" stroke="#4A90D9" stroke-width="0.5" opacity="0.4" />
    <line x1="4" y1="16" x2="20" y2="16" stroke="#4A90D9" stroke-width="0.5" opacity="0.4" />
    <line x1="8" y1="4" x2="8" y2="20" stroke="#4A90D9" stroke-width="0.5" opacity="0.4" />
    <line x1="12" y1="4" x2="12" y2="20" stroke="#4A90D9" stroke-width="0.5" opacity="0.4" />
    <line x1="16" y1="4" x2="16" y2="20" stroke="#4A90D9" stroke-width="0.5" opacity="0.4" />
    <circle cx="8" cy="8" r="1.8" fill="#4A90D9" />
    <circle cx="16" cy="8" r="1.4" fill="#7AB3E8" opacity="0.8" />
    <circle cx="12" cy="12" r="2" fill="#4A90D9" />
    <circle cx="8" cy="16" r="1.4" fill="#7AB3E8" opacity="0.8" />
    <circle cx="16" cy="16" r="1.8" fill="#4A90D9" />
    <line x1="8" y1="8" x2="12" y2="12" stroke="#4A90D9" stroke-width="1" stroke-linecap="round" opacity="0.7" />
    <line x1="16" y1="8" x2="12" y2="12" stroke="#4A90D9" stroke-width="1" stroke-linecap="round" opacity="0.7" />
    <line x1="12" y1="12" x2="8" y2="16" stroke="#4A90D9" stroke-width="1" stroke-linecap="round" opacity="0.7" />
    <line x1="12" y1="12" x2="16" y2="16" stroke="#4A90D9" stroke-width="1" stroke-linecap="round" opacity="0.7" />
  </g>
</svg>
